<svg id="visual" viewBox="0 0 1440 3800" width="1440" height="3800" xmlns="http://www.w3.org/2000/svg" xmlns:xlink="http://www.w3.org/1999/xlink" version="1.1"><rect x="0" y="0" width="1440" height="3800" fill="#001220"></rect><g fill="#715DF2"><circle r="265" cx="1137" cy="2192"></circle><circle r="50" cx="319" cy="1944"></circle><circle r="139" cx="1432" cy="493"></circle><circle r="208" cx="198" cy="220"></circle><circle r="228" cx="256" cy="1249"></circle><circle r="142" cx="194" cy="3229"></circle><circle r="186" cx="1272" cy="1624"></circle><circle r="128" cx="1137" cy="3101"></circle><circle r="97" cx="1202" cy="1049"></circle><circle r="132" cx="612" cy="574"></circle><circle r="205" cx="845" cy="3760"></circle><circle r="149" cx="1094" cy="19"></circle><circle r="187" cx="643" cy="2684"></circle><circle r="229" cx="36" cy="2622"></circle><circle r="139" cx="1435" cy="2641"></circle><circle r="60" cx="707" cy="1551"></circle><circle r="105" cx="44" cy="730"></circle><circle r="243" cx="26" cy="3792"></circle><circle r="197" cx="1412" cy="3576"></circle></g></svg>