<svg id="visual" viewBox="0 0 1440 300" width="1440" height="300" xmlns="http://www.w3.org/2000/svg" xmlns:xlink="http://www.w3.org/1999/xlink" version="1.1"><path d="M0 198L15 210.8C30 223.7 60 249.3 90 248C120 246.7 150 218.3 180 210.7C210 203 240 216 270 223C300 230 330 231 360 238.5C390 246 420 260 450 252.2C480 244.3 510 214.7 540 214.7C570 214.7 600 244.3 630 256.7C660 269 690 264 720 258.5C750 253 780 247 810 246.2C840 245.3 870 249.7 900 247C930 244.3 960 234.7 990 221.8C1020 209 1050 193 1080 190.7C1110 188.3 1140 199.7 1170 211.2C1200 222.7 1230 234.3 1260 232.8C1290 231.3 1320 216.7 1350 212.3C1380 208 1410 214 1425 217L1440 220L1440 301L1425 301C1410 301 1380 301 1350 301C1320 301 1290 301 1260 301C1230 301 1200 301 1170 301C1140 301 1110 301 1080 301C1050 301 1020 301 990 301C960 301 930 301 900 301C870 301 840 301 810 301C780 301 750 301 720 301C690 301 660 301 630 301C600 301 570 301 540 301C510 301 480 301 450 301C420 301 390 301 360 301C330 301 300 301 270 301C240 301 210 301 180 301C150 301 120 301 90 301C60 301 30 301 15 301L0 301Z" fill="#715DF2" stroke-linecap="round" stroke-linejoin="miter"></path></svg>